<svg xmlns="http://www.w3.org/2000/svg" xmlns:xlink="http://www.w3.org/1999/xlink" width="112" zoomAndPan="magnify" viewBox="0 0 84 83.999999" height="112" preserveAspectRatio="xMidYMid meet" version="1.0"><defs><g/><clipPath id="b0ac4f6674"><path d="M 38 16.519531 L 50 16.519531 L 50 25 L 38 25 Z M 38 16.519531 " clip-rule="nonzero"/></clipPath><clipPath id="e3d578f4ad"><path d="M 41 28 L 72.523438 28 L 72.523438 64.519531 L 41 64.519531 Z M 41 28 " clip-rule="nonzero"/></clipPath><clipPath id="755cf6f7fb"><path d="M 11.773438 46 L 41 46 L 41 64.519531 L 11.773438 64.519531 Z M 11.773438 46 " clip-rule="nonzero"/></clipPath></defs><rect x="-8.4" width="100.8" fill="#ffffff" y="-8.4" height="100.799999" fill-opacity="1"/><rect x="-8.4" width="100.8" fill="#14cc1c" y="-8.4" height="100.799999" fill-opacity="1"/><path fill="#ffffff" d="M 20.703125 38.953125 L 27.105469 41.488281 C 27.421875 41.613281 27.800781 41.550781 28.054688 41.296875 L 31.539062 37.9375 C 32.046875 37.492188 31.855469 36.734375 31.222656 36.480469 L 24.824219 33.945312 C 24.503906 33.820312 24.125 33.882812 23.871094 34.136719 L 20.386719 37.492188 C 19.941406 37.9375 20.132812 38.699219 20.703125 38.953125 Z M 20.703125 38.953125 " fill-opacity="1" fill-rule="nonzero"/><path fill="#ffffff" d="M 26.722656 33.183594 L 33.125 35.71875 C 33.441406 35.847656 33.820312 35.78125 34.074219 35.53125 L 37.558594 32.234375 C 38.066406 31.789062 37.875 31.03125 37.242188 30.777344 L 30.777344 28.242188 C 30.460938 28.117188 30.082031 28.179688 29.828125 28.433594 L 26.40625 31.726562 C 25.964844 32.171875 26.089844 32.996094 26.722656 33.183594 Z M 26.722656 33.183594 " fill-opacity="1" fill-rule="nonzero"/><path fill="#ffffff" d="M 32.617188 27.480469 L 39.082031 30.015625 C 39.398438 30.144531 39.777344 30.078125 40.03125 29.828125 L 43.515625 26.40625 C 44.023438 25.960938 43.832031 25.199219 43.199219 24.945312 L 36.734375 22.410156 C 36.417969 22.285156 36.039062 22.347656 35.785156 22.601562 L 32.300781 26.023438 C 31.855469 26.46875 31.984375 27.226562 32.617188 27.480469 Z M 32.617188 27.480469 " fill-opacity="1" fill-rule="nonzero"/><g clip-path="url(#b0ac4f6674)"><path fill="#ffffff" d="M 38.574219 21.714844 L 45.039062 24.25 C 45.355469 24.375 45.734375 24.3125 45.988281 24.058594 L 49.472656 20.636719 C 49.980469 20.195312 49.789062 19.433594 49.15625 19.179688 L 42.691406 16.644531 C 42.375 16.519531 41.996094 16.582031 41.742188 16.835938 L 38.257812 20.257812 C 37.8125 20.699219 38.003906 21.460938 38.574219 21.714844 Z M 38.574219 21.714844 " fill-opacity="1" fill-rule="nonzero"/></g><path fill="#ffffff" d="M 39.96875 46.554688 L 46.367188 49.089844 C 46.683594 49.21875 47.066406 49.152344 47.320312 48.902344 L 50.804688 45.480469 C 51.3125 45.035156 51.121094 44.273438 50.488281 44.019531 L 44.085938 41.488281 C 43.769531 41.359375 43.390625 41.421875 43.136719 41.675781 L 39.652344 45.097656 C 39.207031 45.542969 39.398438 46.300781 39.96875 46.554688 Z M 39.96875 46.554688 " fill-opacity="1" fill-rule="nonzero"/><path fill="#ffffff" d="M 53.339844 43.070312 L 56.824219 39.648438 C 57.332031 39.207031 57.140625 38.445312 56.507812 38.191406 L 50.042969 35.65625 C 49.726562 35.53125 49.347656 35.59375 49.09375 35.847656 L 45.609375 39.207031 C 45.101562 39.648438 45.292969 40.410156 45.925781 40.664062 L 52.324219 43.199219 C 52.707031 43.386719 53.085938 43.324219 53.339844 43.070312 Z M 53.339844 43.070312 " fill-opacity="1" fill-rule="nonzero"/><path fill="#ffffff" d="M 39.523438 32.171875 L 36.039062 35.53125 C 35.53125 35.972656 35.722656 36.734375 36.355469 36.988281 L 42.757812 39.523438 C 43.074219 39.648438 43.453125 39.585938 43.707031 39.332031 L 47.191406 35.972656 C 47.699219 35.53125 47.507812 34.769531 46.875 34.515625 L 40.410156 31.980469 C 40.15625 31.855469 39.777344 31.917969 39.523438 32.171875 Z M 39.523438 32.171875 " fill-opacity="1" fill-rule="nonzero"/><path fill="#ffffff" d="M 48.714844 33.753906 C 49.03125 33.882812 49.410156 33.820312 49.664062 33.566406 L 53.148438 30.144531 C 53.65625 29.699219 53.464844 28.9375 52.832031 28.6875 L 46.367188 26.152344 C 46.050781 26.023438 45.671875 26.085938 45.417969 26.339844 L 41.933594 29.761719 C 41.425781 30.207031 41.617188 30.96875 42.25 31.21875 Z M 48.714844 33.753906 " fill-opacity="1" fill-rule="nonzero"/><path fill="#ffffff" d="M 59.359375 37.304688 L 62.84375 33.882812 C 63.351562 33.4375 63.160156 32.679688 62.527344 32.425781 L 56.0625 29.890625 C 55.746094 29.761719 55.367188 29.828125 55.113281 30.078125 L 51.628906 33.5 C 51.121094 33.945312 51.3125 34.707031 51.945312 34.960938 L 58.410156 37.492188 C 58.726562 37.621094 59.105469 37.558594 59.359375 37.304688 Z M 59.359375 37.304688 " fill-opacity="1" fill-rule="nonzero"/><path fill="#ffffff" d="M 57.902344 29.191406 L 64.367188 31.726562 C 64.683594 31.855469 65.0625 31.789062 65.316406 31.539062 L 68.800781 28.117188 C 69.308594 27.671875 69.117188 26.910156 68.484375 26.65625 L 62.085938 24.121094 C 61.765625 23.996094 61.386719 24.058594 61.132812 24.3125 L 57.648438 27.734375 C 57.203125 28.179688 57.332031 28.9375 57.902344 29.191406 Z M 57.902344 29.191406 " fill-opacity="1" fill-rule="nonzero"/><path fill="#ffffff" d="M 48.269531 25.453125 L 54.734375 27.988281 C 55.050781 28.117188 55.429688 28.050781 55.683594 27.796875 L 59.167969 24.375 C 59.675781 23.933594 59.484375 23.171875 58.851562 22.917969 L 52.386719 20.382812 C 52.070312 20.257812 51.691406 20.320312 51.4375 20.574219 L 47.953125 23.996094 C 47.507812 24.441406 47.636719 25.199219 48.269531 25.453125 Z M 48.269531 25.453125 " fill-opacity="1" fill-rule="nonzero"/><path fill="#ffffff" d="M 37.75 45.035156 L 41.234375 41.613281 C 41.742188 41.167969 41.550781 40.410156 40.917969 40.15625 L 34.519531 37.621094 C 34.203125 37.492188 33.820312 37.558594 33.566406 37.8125 L 30.082031 41.167969 C 29.574219 41.613281 29.765625 42.375 30.398438 42.628906 L 36.800781 45.160156 C 37.117188 45.414062 37.496094 45.351562 37.75 45.035156 Z M 37.75 45.035156 " fill-opacity="1" fill-rule="nonzero"/><path fill="#ffffff" d="M 28.5625 43.449219 C 28.246094 43.324219 27.863281 43.386719 27.609375 43.640625 L 23.683594 47.441406 C 23.175781 47.886719 23.363281 48.648438 24 48.902344 L 30.460938 51.4375 C 30.777344 51.5625 31.160156 51.5 31.414062 51.246094 L 35.34375 47.507812 C 35.847656 47.0625 35.660156 46.300781 35.023438 46.050781 Z M 28.5625 43.449219 " fill-opacity="1" fill-rule="nonzero"/><path fill="#ffffff" d="M 44.65625 49.789062 L 38.257812 47.253906 C 37.941406 47.125 37.558594 47.191406 37.304688 47.441406 L 33.378906 51.183594 C 32.871094 51.625 33.0625 52.386719 33.695312 52.640625 L 40.15625 55.175781 C 40.476562 55.300781 40.855469 55.238281 41.109375 54.984375 L 44.972656 51.246094 C 45.355469 50.800781 45.226562 50.042969 44.65625 49.789062 Z M 44.65625 49.789062 " fill-opacity="1" fill-rule="nonzero"/><g clip-path="url(#e3d578f4ad)"><path fill="#ffffff" d="M 71.96875 34.769531 L 70.703125 29.003906 C 70.640625 28.6875 70.257812 28.621094 70.070312 28.8125 L 66.203125 32.550781 C 65.886719 32.867188 65.695312 33.375 65.695312 33.882812 C 65.824219 34.769531 65.949219 36.164062 66.011719 37.175781 C 66.011719 37.429688 65.695312 37.492188 65.632812 37.304688 L 64.683594 34.769531 C 64.554688 34.515625 64.238281 34.453125 64.113281 34.640625 L 60.183594 38.445312 C 59.867188 38.761719 59.675781 39.269531 59.675781 39.777344 C 59.804688 40.664062 59.929688 42.058594 59.992188 43.070312 C 59.992188 43.324219 59.675781 43.386719 59.613281 43.199219 L 58.664062 40.664062 C 58.535156 40.410156 58.21875 40.347656 58.09375 40.535156 L 54.164062 44.402344 C 53.847656 44.71875 53.65625 45.226562 53.65625 45.730469 C 53.78125 46.621094 53.910156 48.011719 53.972656 49.027344 C 53.972656 49.28125 53.65625 49.34375 53.59375 49.15625 L 52.640625 46.621094 C 52.515625 46.367188 52.199219 46.300781 52.070312 46.492188 L 48.144531 50.230469 C 47.824219 50.546875 47.636719 51.054688 47.636719 51.5625 L 48.015625 54.730469 C 48.078125 54.984375 47.699219 55.046875 47.636719 54.859375 C 47.320312 54.035156 46.875 53.019531 46.621094 52.386719 C 46.496094 52.132812 46.179688 52.070312 46.050781 52.257812 L 41.933594 56.25 C 41.617188 56.570312 41.425781 57.011719 41.425781 57.519531 L 41.867188 63.792969 C 41.933594 64.238281 42.4375 64.425781 42.757812 64.109375 L 71.527344 36.351562 C 71.96875 35.65625 72.097656 35.210938 71.96875 34.769531 Z M 71.96875 34.769531 " fill-opacity="1" fill-rule="nonzero"/></g><path fill="#ffffff" d="M 14.304688 45.160156 L 20.765625 47.695312 C 21.082031 47.824219 21.464844 47.761719 21.71875 47.507812 L 25.644531 43.703125 C 26.152344 43.261719 25.964844 42.5 25.328125 42.246094 L 18.929688 39.710938 C 18.613281 39.585938 18.230469 39.648438 17.976562 39.902344 L 13.984375 43.769531 C 13.480469 44.148438 13.667969 44.910156 14.304688 45.160156 Z M 14.304688 45.160156 " fill-opacity="1" fill-rule="nonzero"/><g clip-path="url(#755cf6f7fb)"><path fill="#ffffff" d="M 39.207031 56.25 L 32.492188 53.652344 C 32.046875 53.527344 31.601562 53.78125 31.539062 54.222656 L 31.222656 56.886719 C 31.160156 57.203125 30.714844 57.203125 30.714844 56.886719 C 30.589844 55.808594 30.527344 54.667969 30.460938 53.84375 C 30.398438 53.210938 30.019531 52.703125 29.449219 52.511719 L 22.859375 49.976562 C 22.414062 49.851562 21.972656 50.105469 21.90625 50.546875 L 21.589844 53.210938 C 21.527344 53.527344 21.082031 53.527344 21.082031 53.210938 C 20.957031 52.132812 20.894531 50.992188 20.832031 50.167969 C 20.765625 49.535156 20.386719 49.027344 19.816406 48.835938 L 13.414062 46.300781 C 12.972656 46.113281 12.527344 46.429688 12.464844 46.871094 L 11.957031 52.828125 C 11.894531 53.464844 12.273438 53.96875 12.84375 54.222656 L 40.03125 64.742188 C 40.410156 64.871094 40.792969 64.617188 40.726562 64.238281 L 40.285156 57.710938 C 40.15625 57.011719 39.777344 56.503906 39.207031 56.25 Z M 39.207031 56.25 " fill-opacity="1" fill-rule="nonzero"/></g><g fill="#ffffff" fill-opacity="1"><g transform="translate(39.144882, 36.752132)"><g><path d="M 0.578125 -0.703125 C 0.578125 -0.972656 0.648438 -1.175781 0.796875 -1.3125 C 0.941406 -1.457031 1.15625 -1.53125 1.4375 -1.53125 C 1.707031 -1.53125 1.914062 -1.457031 2.0625 -1.3125 C 2.207031 -1.164062 2.28125 -0.960938 2.28125 -0.703125 C 2.28125 -0.441406 2.203125 -0.238281 2.046875 -0.09375 C 1.898438 0.0507812 1.695312 0.125 1.4375 0.125 C 1.15625 0.125 0.941406 0.0546875 0.796875 -0.078125 C 0.648438 -0.222656 0.578125 -0.429688 0.578125 -0.703125 Z M 0.578125 -0.703125 "/></g></g></g></svg>