<svg xmlns="http://www.w3.org/2000/svg" xmlns:xlink="http://www.w3.org/1999/xlink" width="112" zoomAndPan="magnify" viewBox="0 0 84 83.999999" height="112" preserveAspectRatio="xMidYMid meet" version="1.0"><defs><g/><clipPath id="cb6ad7c0fa"><path d="M 22 22.550781 L 62 22.550781 L 62 61.550781 L 22 61.550781 Z M 22 22.550781 " clip-rule="nonzero"/></clipPath><clipPath id="d51a9f50c7"><path d="M 15.804688 25 L 21 25 L 21 39 L 15.804688 39 Z M 15.804688 25 " clip-rule="nonzero"/></clipPath><clipPath id="25fbb7c1bb"><path d="M 65 35 L 68.304688 35 L 68.304688 59 L 65 59 Z M 65 35 " clip-rule="nonzero"/></clipPath></defs><rect x="-8.4" width="100.8" fill="#ffffff" y="-8.4" height="100.799999" fill-opacity="1"/><rect x="-8.4" width="100.8" fill="#14cc1c" y="-8.4" height="100.799999" fill-opacity="1"/><g clip-path="url(#cb6ad7c0fa)"><path fill="#ffffff" d="M 42.273438 58.523438 C 33.148438 58.523438 25.75 51.121094 25.75 41.996094 C 25.75 32.871094 33.148438 25.46875 42.273438 25.46875 C 51.402344 25.46875 58.800781 32.871094 58.800781 41.996094 C 58.800781 51.121094 51.402344 58.523438 42.273438 58.523438 Z M 42.273438 22.554688 C 31.539062 22.554688 22.832031 31.257812 22.832031 41.996094 C 22.832031 52.734375 31.539062 61.4375 42.273438 61.4375 C 53.015625 61.4375 61.71875 52.734375 61.71875 41.996094 C 61.71875 31.257812 53.015625 22.554688 42.273438 22.554688 " fill-opacity="1" fill-rule="nonzero"/></g><path fill="#ffffff" d="M 42.273438 56.902344 C 34.042969 56.902344 27.367188 50.226562 27.367188 41.996094 C 27.367188 33.765625 34.042969 27.089844 42.273438 27.089844 C 50.507812 27.089844 57.179688 33.765625 57.179688 41.996094 C 57.179688 50.226562 50.507812 56.902344 42.273438 56.902344 Z M 42.273438 26.199219 C 33.550781 26.199219 26.476562 33.273438 26.476562 41.996094 C 26.476562 50.722656 33.550781 57.792969 42.273438 57.792969 C 51 57.792969 58.070312 50.722656 58.070312 41.996094 C 58.070312 33.273438 51 26.199219 42.273438 26.199219 " fill-opacity="1" fill-rule="nonzero"/><path fill="#ffffff" d="M 56.535156 41.996094 C 56.535156 49.871094 50.148438 56.253906 42.273438 56.253906 C 34.402344 56.253906 28.015625 49.871094 28.015625 41.996094 C 28.015625 34.121094 34.402344 27.738281 42.273438 27.738281 C 50.148438 27.738281 56.535156 34.121094 56.535156 41.996094 " fill-opacity="1" fill-rule="nonzero"/><g clip-path="url(#d51a9f50c7)"><path fill="#ffffff" d="M 20.28125 33.265625 L 19.664062 25.5 C 19.664062 25.441406 19.609375 25.390625 19.546875 25.390625 C 19.480469 25.390625 19.429688 25.441406 19.429688 25.5 L 19.429688 33.121094 L 18.941406 33.121094 L 18.648438 25.5 C 18.648438 25.441406 18.59375 25.390625 18.53125 25.390625 C 18.464844 25.390625 18.414062 25.441406 18.414062 25.5 L 18.335938 33.121094 L 17.886719 33.121094 L 17.886719 33.125 L 17.855469 33.125 L 17.78125 25.503906 C 17.78125 25.441406 17.726562 25.394531 17.660156 25.394531 C 17.597656 25.394531 17.542969 25.441406 17.542969 25.503906 L 17.25 33.125 L 16.761719 33.125 L 16.761719 25.503906 C 16.761719 25.441406 16.710938 25.394531 16.644531 25.394531 C 16.582031 25.394531 16.527344 25.441406 16.527344 25.503906 L 15.910156 33.269531 C 15.875 33.6875 15.804688 34.894531 16.105469 35.171875 C 16.472656 35.511719 17.785156 36.175781 17.859375 36.753906 C 17.871094 36.84375 17.878906 36.953125 17.886719 37.0625 L 17.886719 38.394531 L 17.902344 38.394531 C 17.902344 38.398438 17.902344 38.398438 17.902344 38.398438 L 18.304688 38.398438 L 18.304688 37.0625 C 18.3125 36.949219 18.320312 36.839844 18.335938 36.75 C 18.40625 36.171875 19.71875 35.507812 20.085938 35.167969 C 20.386719 34.890625 20.316406 33.683594 20.28125 33.265625 " fill-opacity="1" fill-rule="nonzero"/></g><path fill="#ffffff" d="M 19.460938 53.566406 C 19.480469 51.910156 19.382812 49.714844 19.089844 46.789062 C 18.796875 43.851562 18.515625 37.5 18.097656 35.417969 C 17.679688 37.5 17.398438 43.851562 17.101562 46.789062 C 16.785156 49.953125 16.699219 52.265625 16.742188 53.964844 L 16.742188 57.339844 C 16.742188 57.992188 17.277344 58.523438 17.964844 58.585938 C 18.023438 58.601562 18.0625 58.601562 18.082031 58.597656 C 18.089844 58.597656 18.09375 58.601562 18.101562 58.601562 C 18.105469 58.601562 18.109375 58.597656 18.113281 58.597656 C 18.132812 58.601562 18.171875 58.601562 18.222656 58.589844 C 18.917969 58.53125 19.464844 57.996094 19.464844 57.339844 L 19.464844 53.628906 C 19.464844 53.605469 19.460938 53.585938 19.460938 53.566406 " fill-opacity="1" fill-rule="nonzero"/><path fill="#ffffff" d="M 67.59375 44.4375 C 67.59375 44.4375 67.445312 39.988281 67.59375 36.929688 C 67.742188 33.875 67.921875 27.691406 67.886719 26.605469 C 67.847656 25.519531 67.742188 24.976562 66.859375 25.585938 C 65.980469 26.199219 64.585938 28.144531 64.769531 33.183594 C 64.953125 38.222656 65.980469 40.191406 66.015625 42.296875 C 66.050781 44.402344 66.125 45.625 66.125 45.625 L 67.59375 44.4375 " fill-opacity="1" fill-rule="nonzero"/><g clip-path="url(#25fbb7c1bb)"><path fill="#ffffff" d="M 65.425781 53.625 C 65.40625 51.96875 65.503906 49.777344 65.796875 46.851562 C 66.089844 43.914062 66.371094 37.5625 66.789062 35.476562 C 67.207031 37.5625 67.488281 43.914062 67.78125 46.851562 C 68.097656 50.015625 68.1875 52.324219 68.144531 54.023438 L 68.144531 57.398438 C 68.144531 58.050781 67.605469 58.582031 66.921875 58.648438 C 66.863281 58.664062 66.820312 58.664062 66.800781 58.660156 C 66.796875 58.660156 66.789062 58.660156 66.785156 58.660156 C 66.777344 58.660156 66.773438 58.660156 66.769531 58.660156 C 66.75 58.664062 66.710938 58.664062 66.664062 58.648438 C 65.96875 58.59375 65.421875 58.058594 65.421875 57.398438 L 65.421875 53.691406 C 65.421875 53.664062 65.425781 53.648438 65.425781 53.625 " fill-opacity="1" fill-rule="nonzero"/></g><g fill="#ffffff" fill-opacity="1"><g transform="translate(40.61967, 39.746568)"><g><path d="M 0.546875 -0.671875 C 0.546875 -0.941406 0.617188 -1.144531 0.765625 -1.28125 C 0.910156 -1.414062 1.117188 -1.484375 1.390625 -1.484375 C 1.648438 -1.484375 1.847656 -1.410156 1.984375 -1.265625 C 2.128906 -1.128906 2.203125 -0.929688 2.203125 -0.671875 C 2.203125 -0.421875 2.128906 -0.222656 1.984375 -0.078125 C 1.835938 0.0546875 1.640625 0.125 1.390625 0.125 C 1.117188 0.125 0.910156 0.0546875 0.765625 -0.078125 C 0.617188 -0.222656 0.546875 -0.421875 0.546875 -0.671875 Z M 0.546875 -0.671875 "/></g></g></g></svg>