<svg xmlns="http://www.w3.org/2000/svg" xmlns:xlink="http://www.w3.org/1999/xlink" width="112" zoomAndPan="magnify" viewBox="0 0 84 83.999999" height="112" preserveAspectRatio="xMidYMid meet" version="1.0"><defs><g/><clipPath id="86f5281743"><path d="M 27.144531 24 L 57 24 L 57 43 L 27.144531 43 Z M 27.144531 24 " clip-rule="nonzero"/></clipPath></defs><rect x="-8.4" width="100.8" fill="#ffffff" y="-8.4" height="100.799999" fill-opacity="1"/><rect x="-8.4" width="100.8" fill="#14cc1c" y="-8.4" height="100.799999" fill-opacity="1"/><path fill="#ffffff" d="M 41.066406 67.152344 C 41.390625 68.007812 42.605469 68.007812 42.925781 67.152344 L 43.546875 65.492188 L 38.589844 60.535156 L 41.066406 67.152344 " fill-opacity="1" fill-rule="nonzero"/><path fill="#ffffff" d="M 41.851562 27.878906 C 45.230469 27.960938 47.9375 25.0625 47.9375 21.683594 L 47.9375 16.992188 C 47.9375 16.445312 47.492188 16 46.949219 16 L 42.253906 16 C 38.875 16 35.976562 18.707031 36.058594 22.085938 C 36.132812 25.25 38.6875 27.804688 41.851562 27.878906 " fill-opacity="1" fill-rule="nonzero"/><path fill="#ffffff" d="M 37.046875 49.667969 C 36.5 49.667969 36.054688 49.222656 36.054688 48.679688 C 36.054688 48.132812 36.5 47.6875 37.046875 47.6875 C 37.589844 47.6875 38.035156 48.132812 38.035156 48.679688 C 38.035156 49.222656 37.589844 49.667969 37.046875 49.667969 Z M 32.019531 43.015625 L 36.90625 56.050781 L 44.308594 63.453125 L 45.976562 59.011719 L 39.304688 52.335938 C 38.917969 51.949219 38.917969 51.324219 39.304688 50.9375 C 39.691406 50.550781 40.316406 50.550781 40.703125 50.9375 L 46.738281 56.972656 L 48.675781 51.808594 L 41.574219 44.707031 C 37.972656 44.664062 34.691406 44.042969 32.019531 43.015625 " fill-opacity="1" fill-rule="nonzero"/><path fill="#ffffff" d="M 49.441406 49.773438 L 51.972656 43.015625 C 49.773438 43.863281 47.164062 44.425781 44.296875 44.628906 L 49.441406 49.773438 " fill-opacity="1" fill-rule="nonzero"/><g clip-path="url(#86f5281743)"><path fill="#ffffff" d="M 54.433594 32.101562 C 54 31.78125 53.890625 31.179688 54.195312 30.734375 C 54.582031 30.167969 54.777344 29.605469 54.777344 29.050781 C 54.777344 27.261719 52.753906 25.453125 49.550781 24.320312 C 48.539062 27.53125 45.535156 29.863281 41.996094 29.863281 C 38.4375 29.863281 35.417969 27.5 34.421875 24.261719 C 31.121094 25.394531 29.03125 27.222656 29.03125 29.050781 C 29.03125 29.628906 29.242188 30.214844 29.660156 30.804688 C 29.976562 31.242188 29.882812 31.851562 29.449219 32.171875 C 28.394531 32.949219 27.144531 34.210938 27.144531 35.804688 C 27.144531 37.464844 28.472656 39.007812 30.648438 40.21875 C 30.660156 40.222656 30.667969 40.226562 30.679688 40.234375 C 33.429688 41.75 37.515625 42.738281 41.996094 42.738281 C 46.484375 42.738281 50.578125 41.75 53.328125 40.226562 C 53.328125 40.226562 53.332031 40.222656 53.332031 40.222656 C 55.515625 39.011719 56.851562 37.46875 56.851562 35.804688 C 56.851562 34.179688 55.535156 32.894531 54.433594 32.101562 " fill-opacity="1" fill-rule="nonzero"/></g><g fill="#ffffff" fill-opacity="1"><g transform="translate(40.61967, 39.746568)"><g><path d="M 0.546875 -0.671875 C 0.546875 -0.941406 0.617188 -1.144531 0.765625 -1.28125 C 0.910156 -1.414062 1.117188 -1.484375 1.390625 -1.484375 C 1.648438 -1.484375 1.847656 -1.410156 1.984375 -1.265625 C 2.128906 -1.128906 2.203125 -0.929688 2.203125 -0.671875 C 2.203125 -0.421875 2.128906 -0.222656 1.984375 -0.078125 C 1.835938 0.0546875 1.640625 0.125 1.390625 0.125 C 1.117188 0.125 0.910156 0.0546875 0.765625 -0.078125 C 0.617188 -0.222656 0.546875 -0.421875 0.546875 -0.671875 Z M 0.546875 -0.671875 "/></g></g></g></svg>