<svg xmlns="http://www.w3.org/2000/svg" xmlns:xlink="http://www.w3.org/1999/xlink" width="212" zoomAndPan="magnify" viewBox="0 0 159 159.000002" height="212" preserveAspectRatio="xMidYMid meet" version="1.0"><defs><g/><clipPath id="d0e1a2dbe9"><path d="M 0.496094 0 L 158.503906 0 L 158.503906 158.007812 L 0.496094 158.007812 Z M 0.496094 0 " clip-rule="nonzero"/></clipPath><clipPath id="d4ec2763e0"><path d="M 48.0625 27.988281 L 110.667969 27.988281 L 110.667969 76 L 48.0625 76 Z M 48.0625 27.988281 " clip-rule="nonzero"/></clipPath></defs><g clip-path="url(#d0e1a2dbe9)"><path fill="#ffffff" d="M 0.496094 0 L 158.503906 0 L 158.503906 158.007812 L 0.496094 158.007812 Z M 0.496094 0 " fill-opacity="1" fill-rule="nonzero"/><path fill="#14cc1c" d="M 0.496094 0 L 158.503906 0 L 158.503906 158.007812 L 0.496094 158.007812 Z M 0.496094 0 " fill-opacity="1" fill-rule="nonzero"/></g><path fill="#ffffff" d="M 60.109375 78.65625 L 59.277344 78.65625 L 63.722656 91.042969 L 76.105469 78.65625 L 60.109375 78.65625 " fill-opacity="1" fill-rule="nonzero"/><path fill="#ffffff" d="M 65.011719 94.628906 L 69.6875 107.660156 L 98.375 78.65625 L 80.980469 78.65625 L 65.011719 94.628906 " fill-opacity="1" fill-rule="nonzero"/><path fill="#ffffff" d="M 76.898438 127.726562 C 77.71875 130.019531 80.960938 130.019531 81.78125 127.726562 L 97.226562 84.714844 L 70.980469 111.253906 L 76.898438 127.726562 " fill-opacity="1" fill-rule="nonzero"/><g clip-path="url(#d4ec2763e0)"><path fill="#ffffff" d="M 105.996094 63.320312 C 106.710938 60.867188 107.117188 58.277344 107.117188 55.589844 C 107.117188 40.34375 94.757812 27.984375 79.511719 27.984375 C 64.269531 27.984375 51.910156 40.34375 51.910156 55.589844 C 51.910156 58.277344 52.316406 60.867188 53.03125 63.320312 C 50.21875 63.816406 48.074219 66.257812 48.074219 69.214844 C 48.074219 72.527344 50.757812 75.210938 54.070312 75.210938 L 104.957031 75.210938 C 108.269531 75.210938 110.953125 72.527344 110.953125 69.214844 C 110.953125 66.257812 108.8125 63.816406 105.996094 63.320312 " fill-opacity="1" fill-rule="nonzero"/></g><g fill="#ffffff" fill-opacity="1"><g transform="translate(76.948576, 73.042745)"><g><path d="M 1.015625 -1.25 C 1.015625 -1.738281 1.144531 -2.109375 1.40625 -2.359375 C 1.675781 -2.609375 2.0625 -2.734375 2.5625 -2.734375 C 3.039062 -2.734375 3.410156 -2.601562 3.671875 -2.34375 C 3.941406 -2.09375 4.078125 -1.726562 4.078125 -1.25 C 4.078125 -0.789062 3.941406 -0.425781 3.671875 -0.15625 C 3.410156 0.101562 3.039062 0.234375 2.5625 0.234375 C 2.070312 0.234375 1.691406 0.101562 1.421875 -0.15625 C 1.148438 -0.414062 1.015625 -0.78125 1.015625 -1.25 Z M 1.015625 -1.25 "/></g></g></g></svg>