<svg xmlns="http://www.w3.org/2000/svg" xmlns:xlink="http://www.w3.org/1999/xlink" width="112" zoomAndPan="magnify" viewBox="0 0 84 83.999999" height="112" preserveAspectRatio="xMidYMid meet" version="1.0"><defs><g/><clipPath id="e5b604c67d"><path d="M 29 33 L 69.710938 33 L 69.710938 64 L 29 64 Z M 29 33 " clip-rule="nonzero"/></clipPath><clipPath id="e6722dd371"><path d="M 30 15.390625 L 69.710938 15.390625 L 69.710938 39 L 30 39 Z M 30 15.390625 " clip-rule="nonzero"/></clipPath><clipPath id="46f1f66cd9"><path d="M 14.210938 36 L 49 36 L 49 53 L 14.210938 53 Z M 14.210938 36 " clip-rule="nonzero"/></clipPath><clipPath id="3957e0dc5b"><path d="M 14.210938 43 L 49 43 L 49 68.640625 L 14.210938 68.640625 Z M 14.210938 43 " clip-rule="nonzero"/></clipPath></defs><rect x="-8.4" width="100.8" fill="#ffffff" y="-8.4" height="100.799999" fill-opacity="1"/><rect x="-8.4" width="100.8" fill="#14cc1c" y="-8.4" height="100.799999" fill-opacity="1"/><g clip-path="url(#e5b604c67d)"><path fill="#ffffff" d="M 69.148438 34.039062 C 68.773438 33.835938 68.316406 33.859375 67.960938 34.09375 L 29.785156 59.546875 C 29.300781 59.871094 29.132812 60.503906 29.394531 61.027344 L 30.550781 63.339844 C 30.691406 63.625 30.945312 63.835938 31.246094 63.929688 C 31.359375 63.964844 31.472656 63.980469 31.585938 63.980469 C 31.78125 63.980469 31.976562 63.929688 32.152344 63.832031 L 69.171875 43.007812 C 69.535156 42.804688 69.761719 42.417969 69.761719 42 L 69.761719 35.058594 C 69.761719 34.632812 69.523438 34.238281 69.148438 34.039062 Z M 69.148438 34.039062 " fill-opacity="1" fill-rule="nonzero"/></g><path fill="#ffffff" d="M 31.585938 40.84375 C 29.847656 40.84375 21.171875 41.007812 21.171875 44.3125 C 21.171875 47.617188 29.847656 47.785156 31.585938 47.785156 C 33.320312 47.785156 41.996094 47.617188 41.996094 44.3125 C 41.996094 41.007812 33.320312 40.84375 31.585938 40.84375 Z M 31.585938 40.84375 " fill-opacity="1" fill-rule="nonzero"/><g clip-path="url(#e6722dd371)"><path fill="#ffffff" d="M 69.1875 15.550781 C 68.828125 15.339844 68.394531 15.335938 68.035156 15.539062 L 31.015625 36.363281 C 30.457031 36.675781 30.261719 37.382812 30.574219 37.9375 C 30.886719 38.492188 31.59375 38.695312 32.152344 38.378906 L 33.941406 37.371094 L 37.378906 37.371094 C 37.378906 37.546875 37.40625 37.71875 37.488281 37.886719 C 37.691406 38.292969 38.101562 38.527344 38.523438 38.527344 C 38.699219 38.527344 38.875 38.488281 39.042969 38.402344 L 69.121094 23.363281 C 69.511719 23.167969 69.757812 22.769531 69.757812 22.332031 L 69.757812 16.546875 C 69.761719 16.136719 69.542969 15.757812 69.1875 15.550781 Z M 69.1875 15.550781 " fill-opacity="1" fill-rule="nonzero"/></g><g clip-path="url(#46f1f66cd9)"><path fill="#ffffff" d="M 31.585938 36.214844 C 21.691406 36.214844 14.230469 39.695312 14.230469 44.3125 C 14.230469 48.929688 21.691406 52.410156 31.585938 52.410156 C 33.289062 52.410156 34.972656 52.300781 36.601562 52.078125 C 36.773438 52.058594 36.941406 51.992188 37.085938 51.894531 L 42.519531 48.273438 C 39.777344 49.394531 35.898438 50.097656 31.582031 50.097656 C 23.277344 50.097656 16.542969 47.507812 16.542969 44.3125 C 16.542969 41.117188 23.277344 38.527344 31.582031 38.527344 C 39.886719 38.527344 46.621094 41.117188 46.621094 44.3125 C 46.621094 44.882812 46.398438 45.433594 45.996094 45.957031 L 48.289062 44.429688 C 48.707031 44.152344 48.898438 43.636719 48.761719 43.152344 C 47.621094 39.132812 40.398438 36.214844 31.585938 36.214844 Z M 31.585938 36.214844 " fill-opacity="1" fill-rule="nonzero"/></g><path fill="#ffffff" d="M 46.625 44.3125 C 46.625 44.882812 46.398438 45.433594 45.996094 45.957031 L 47.019531 45.273438 C 47.441406 44.992188 47.632812 44.464844 47.484375 43.976562 C 47.335938 43.488281 46.886719 43.15625 46.375 43.15625 L 46.316406 43.15625 C 46.519531 43.53125 46.625 43.917969 46.625 44.3125 Z M 46.625 44.3125 " fill-opacity="1" fill-rule="nonzero"/><g clip-path="url(#3957e0dc5b)"><path fill="#ffffff" d="M 48.363281 58.023438 C 48.007812 57.816406 47.570312 57.8125 47.210938 58.015625 L 33.28125 65.847656 C 32.765625 66.140625 32.175781 66.296875 31.582031 66.296875 C 31.234375 66.296875 30.894531 66.246094 30.566406 66.140625 C 29.660156 65.863281 28.902344 65.222656 28.480469 64.378906 L 27.324219 62.0625 C 26.542969 60.5 27.050781 58.59375 28.503906 57.625 L 42.523438 48.277344 C 39.78125 49.394531 35.902344 50.097656 31.585938 50.097656 C 23.277344 50.097656 16.546875 47.511719 16.546875 44.316406 C 16.546875 43.917969 16.648438 43.53125 16.847656 43.160156 L 15.386719 43.160156 C 14.75 43.160156 14.230469 43.675781 14.230469 44.316406 L 14.230469 60.511719 C 14.230469 65.125 21.691406 68.609375 31.585938 68.609375 C 41.476562 68.609375 48.9375 65.125 48.9375 60.511719 L 48.9375 59.023438 C 48.9375 58.613281 48.71875 58.230469 48.363281 58.023438 Z M 48.363281 58.023438 " fill-opacity="1" fill-rule="nonzero"/></g><g fill="#ffffff" fill-opacity="1"><g transform="translate(37.272442, 38.702133)"><g><path d="M 0.578125 -0.703125 C 0.578125 -0.972656 0.648438 -1.175781 0.796875 -1.3125 C 0.941406 -1.457031 1.15625 -1.53125 1.4375 -1.53125 C 1.707031 -1.53125 1.914062 -1.457031 2.0625 -1.3125 C 2.207031 -1.164062 2.28125 -0.960938 2.28125 -0.703125 C 2.28125 -0.441406 2.203125 -0.238281 2.046875 -0.09375 C 1.898438 0.0507812 1.695312 0.125 1.4375 0.125 C 1.15625 0.125 0.941406 0.0546875 0.796875 -0.078125 C 0.648438 -0.222656 0.578125 -0.429688 0.578125 -0.703125 Z M 0.578125 -0.703125 "/></g></g></g></svg>