<svg xmlns="http://www.w3.org/2000/svg" xmlns:xlink="http://www.w3.org/1999/xlink" width="112" zoomAndPan="magnify" viewBox="0 0 84 83.999999" height="112" preserveAspectRatio="xMidYMid meet" version="1.0"><defs><g/><clipPath id="c66a5cd7bd"><path d="M 11.1875 21 L 46 21 L 46 59 L 11.1875 59 Z M 11.1875 21 " clip-rule="nonzero"/></clipPath><clipPath id="f94ac446d2"><path d="M 41.414062 25.199219 L 72.6875 25.199219 L 72.6875 62.972656 L 41.414062 62.972656 Z M 41.414062 25.199219 " clip-rule="nonzero"/></clipPath></defs><rect x="-8.4" width="100.8" fill="#ffffff" y="-8.4" height="100.799999" fill-opacity="1"/><rect x="-8.4" width="100.8" fill="#14cc1c" y="-8.4" height="100.799999" fill-opacity="1"/><g clip-path="url(#c66a5cd7bd)"><path fill="#ffffff" d="M 34.773438 53.074219 C 33.945312 53.386719 33.085938 53.539062 32.222656 53.539062 C 29.507812 53.539062 26.75 52.058594 24.742188 49.5625 C 25.851562 49.804688 26.96875 49.925781 28.085938 49.925781 C 29.824219 49.925781 31.554688 49.625 33.226562 48.992188 C 35.3125 48.207031 37.121094 46.96875 38.628906 45.398438 C 38.671875 45.351562 38.714844 45.304688 38.757812 45.257812 C 38.855469 45.152344 38.953125 45.046875 39.050781 44.941406 C 39.097656 44.886719 39.144531 44.832031 39.191406 44.777344 C 39.285156 44.667969 39.378906 44.558594 39.46875 44.445312 C 39.507812 44.394531 39.550781 44.347656 39.589844 44.296875 C 39.71875 44.136719 39.84375 43.972656 39.96875 43.804688 C 39.976562 43.945312 39.976562 44.082031 39.980469 44.222656 C 39.980469 44.265625 39.980469 44.308594 39.980469 44.355469 C 39.980469 44.449219 39.980469 44.542969 39.976562 44.636719 C 39.976562 44.6875 39.972656 44.738281 39.972656 44.789062 C 39.96875 44.875 39.964844 44.960938 39.960938 45.046875 C 39.957031 45.101562 39.953125 45.152344 39.949219 45.203125 C 39.945312 45.289062 39.9375 45.375 39.929688 45.457031 C 39.925781 45.507812 39.921875 45.558594 39.914062 45.609375 C 39.90625 45.695312 39.898438 45.78125 39.886719 45.867188 C 39.878906 45.914062 39.875 45.960938 39.867188 46.007812 C 39.855469 46.097656 39.839844 46.1875 39.828125 46.277344 C 39.820312 46.320312 39.8125 46.359375 39.804688 46.402344 C 39.789062 46.5 39.769531 46.597656 39.75 46.695312 C 39.742188 46.726562 39.738281 46.757812 39.730469 46.789062 C 39.707031 46.910156 39.679688 47.03125 39.648438 47.148438 C 39.648438 47.15625 39.648438 47.160156 39.644531 47.167969 C 39.546875 47.5625 39.429688 47.941406 39.289062 48.3125 C 39.285156 48.320312 39.28125 48.328125 39.277344 48.335938 C 39.238281 48.449219 39.191406 48.558594 39.144531 48.671875 C 39.140625 48.683594 39.132812 48.699219 39.125 48.714844 C 39.082031 48.816406 39.035156 48.921875 38.988281 49.023438 C 38.980469 49.039062 38.972656 49.054688 38.964844 49.070312 C 38.917969 49.171875 38.867188 49.269531 38.816406 49.367188 C 38.808594 49.382812 38.800781 49.398438 38.792969 49.410156 C 38.742188 49.511719 38.683594 49.613281 38.628906 49.710938 C 38.621094 49.722656 38.617188 49.730469 38.613281 49.742188 C 38.550781 49.847656 38.484375 49.953125 38.417969 50.058594 C 37.535156 51.429688 36.300781 52.496094 34.773438 53.074219 Z M 21.769531 40.019531 C 20.617188 40.453125 19.632812 41.175781 18.835938 42.113281 C 18.632812 42.351562 18.246094 42.195312 18.265625 41.882812 C 18.386719 39.90625 19.328125 38.265625 20.882812 37.675781 C 21.28125 37.523438 21.699219 37.453125 22.117188 37.453125 C 23.332031 37.453125 24.589844 38.058594 25.628906 39.097656 C 25.851562 39.320312 25.664062 39.691406 25.355469 39.648438 C 24.988281 39.59375 24.625 39.566406 24.261719 39.566406 C 23.414062 39.566406 22.574219 39.710938 21.769531 40.019531 Z M 34.992188 32.339844 C 35.390625 32.1875 35.808594 32.113281 36.226562 32.113281 C 37.441406 32.113281 38.699219 32.71875 39.738281 33.761719 C 39.960938 33.984375 39.773438 34.355469 39.464844 34.308594 C 39.097656 34.257812 38.734375 34.230469 38.371094 34.230469 C 37.523438 34.230469 36.683594 34.375 35.878906 34.679688 C 34.726562 35.117188 33.742188 35.839844 32.945312 36.773438 C 32.742188 37.011719 32.355469 36.859375 32.375 36.546875 C 32.496094 34.570312 33.433594 32.925781 34.992188 32.339844 Z M 40.777344 54.578125 C 40.839844 54.496094 40.902344 54.410156 40.964844 54.324219 C 41.007812 54.265625 41.050781 54.207031 41.09375 54.148438 C 41.15625 54.066406 41.21875 53.980469 41.277344 53.894531 C 41.324219 53.832031 41.371094 53.765625 41.417969 53.699219 C 41.476562 53.617188 41.535156 53.535156 41.59375 53.453125 C 41.660156 53.355469 41.726562 53.257812 41.796875 53.15625 C 41.871094 53.046875 41.949219 52.929688 42.027344 52.816406 C 42.082031 52.730469 42.140625 52.644531 42.199219 52.558594 C 42.25 52.480469 42.296875 52.40625 42.347656 52.328125 C 42.402344 52.242188 42.457031 52.15625 42.515625 52.066406 C 42.5625 51.992188 42.609375 51.914062 42.65625 51.839844 C 42.714844 51.746094 42.773438 51.652344 42.832031 51.558594 C 42.875 51.488281 42.917969 51.414062 42.964844 51.339844 C 43.035156 51.222656 43.105469 51.101562 43.175781 50.980469 C 43.203125 50.933594 43.230469 50.882812 43.261719 50.835938 C 43.355469 50.671875 43.445312 50.507812 43.535156 50.339844 C 43.570312 50.277344 43.605469 50.214844 43.636719 50.152344 C 43.699219 50.039062 43.757812 49.929688 43.816406 49.816406 C 43.851562 49.746094 43.886719 49.675781 43.921875 49.605469 C 43.980469 49.496094 44.035156 49.386719 44.085938 49.273438 C 44.121094 49.207031 44.15625 49.140625 44.1875 49.070312 C 44.246094 48.949219 44.304688 48.824219 44.359375 48.699219 C 44.382812 48.644531 44.410156 48.589844 44.433594 48.535156 C 44.511719 48.359375 44.589844 48.183594 44.660156 48.003906 C 44.679688 47.964844 44.695312 47.921875 44.710938 47.882812 C 44.765625 47.742188 44.820312 47.601562 44.875 47.464844 C 44.898438 47.402344 44.921875 47.339844 44.945312 47.273438 C 44.988281 47.15625 45.027344 47.035156 45.070312 46.914062 C 45.09375 46.847656 45.113281 46.78125 45.136719 46.71875 C 45.175781 46.59375 45.214844 46.46875 45.25 46.34375 C 45.269531 46.285156 45.285156 46.226562 45.300781 46.171875 C 45.351562 46 45.394531 45.828125 45.4375 45.660156 C 45.4375 45.648438 45.441406 45.636719 45.445312 45.628906 C 45.488281 45.445312 45.527344 45.265625 45.5625 45.085938 C 45.570312 45.035156 45.582031 44.980469 45.589844 44.925781 C 45.613281 44.800781 45.632812 44.671875 45.652344 44.546875 C 45.660156 44.484375 45.667969 44.417969 45.679688 44.355469 C 45.695312 44.238281 45.707031 44.117188 45.71875 43.996094 C 45.722656 43.9375 45.726562 43.875 45.734375 43.8125 C 45.742188 43.679688 45.75 43.546875 45.753906 43.414062 C 45.753906 43.371094 45.757812 43.328125 45.757812 43.28125 C 45.761719 43.109375 45.757812 42.933594 45.75 42.761719 C 45.746094 42.722656 45.742188 42.683594 45.742188 42.644531 C 45.734375 42.511719 45.722656 42.375 45.707031 42.246094 C 45.703125 42.195312 45.695312 42.148438 45.6875 42.101562 C 45.671875 41.980469 45.65625 41.863281 45.632812 41.746094 C 45.621094 41.679688 45.609375 41.613281 45.59375 41.546875 C 45.570312 41.433594 45.542969 41.316406 45.511719 41.203125 C 45.496094 41.148438 45.484375 41.097656 45.472656 41.046875 C 45.421875 40.882812 45.371094 40.71875 45.308594 40.558594 L 42.59375 33.378906 L 38.214844 21.804688 C 38.023438 21.296875 37.550781 21.011719 37.066406 21.011719 C 36.777344 21.011719 36.480469 21.117188 36.238281 21.339844 C 33.152344 24.183594 29.484375 26.5 25.316406 28.074219 C 21.390625 29.558594 17.363281 30.261719 13.398438 30.261719 C 13.15625 30.261719 12.914062 30.261719 12.667969 30.253906 C 12.660156 30.253906 12.652344 30.253906 12.640625 30.253906 C 11.789062 30.253906 11.191406 31.109375 11.496094 31.910156 L 18.589844 50.664062 C 20.703125 56.25 30.183594 58.15625 34.660156 58.753906 C 34.855469 58.777344 35.054688 58.792969 35.25 58.792969 C 36.53125 58.792969 37.761719 58.238281 38.613281 57.257812 C 39.210938 56.570312 39.921875 55.710938 40.664062 54.730469 C 40.703125 54.679688 40.738281 54.628906 40.777344 54.578125 " fill-opacity="1" fill-rule="nonzero"/></g><g clip-path="url(#f94ac446d2)"><path fill="#ffffff" d="M 66.101562 45.820312 C 66.125 46.132812 65.742188 46.292969 65.535156 46.058594 C 64.726562 45.132812 63.730469 44.425781 62.574219 44.003906 C 61.796875 43.726562 60.992188 43.589844 60.183594 43.589844 C 59.785156 43.589844 59.382812 43.621094 58.980469 43.6875 C 58.671875 43.734375 58.484375 43.367188 58.699219 43.140625 C 59.742188 42.070312 61.007812 41.445312 62.242188 41.445312 C 62.644531 41.445312 63.042969 41.511719 63.425781 41.652344 C 64.992188 42.214844 65.953125 43.84375 66.101562 45.820312 Z M 71.578125 34.113281 C 71.5625 34.113281 71.546875 34.113281 71.53125 34.113281 C 71.128906 34.128906 70.726562 34.132812 70.320312 34.132812 C 66.515625 34.132812 62.644531 33.484375 58.855469 32.113281 C 54.667969 30.597656 50.964844 28.335938 47.839844 25.535156 C 47.597656 25.320312 47.308594 25.222656 47.023438 25.222656 C 46.53125 25.222656 46.054688 25.515625 45.867188 26.03125 L 43.511719 32.535156 L 45.316406 37.304688 C 46.175781 36.667969 47.125 36.308594 48.058594 36.308594 C 48.457031 36.308594 48.855469 36.375 49.242188 36.515625 C 50.808594 37.082031 51.769531 38.710938 51.917969 40.6875 C 51.941406 41 51.558594 41.15625 51.351562 40.921875 C 50.542969 40 49.546875 39.289062 48.390625 38.871094 C 47.613281 38.589844 46.808594 38.457031 45.996094 38.457031 C 45.917969 38.457031 45.835938 38.460938 45.753906 38.464844 L 46.390625 40.148438 C 47.339844 42.652344 47 45.695312 45.394531 49.207031 C 47 50.960938 48.964844 52.320312 51.246094 53.144531 C 52.855469 53.726562 54.519531 54.007812 56.183594 54.007812 C 57.371094 54.007812 58.5625 53.867188 59.738281 53.59375 C 57.738281 56.148438 54.957031 57.675781 52.207031 57.675781 C 51.378906 57.675781 50.558594 57.535156 49.757812 57.246094 C 47.054688 56.269531 45.242188 53.777344 44.644531 50.722656 C 43.695312 52.480469 42.570312 54.132812 41.496094 55.550781 C 42.976562 57.960938 44.730469 60.089844 45.976562 61.484375 C 46.832031 62.4375 48.042969 62.972656 49.300781 62.972656 C 49.515625 62.972656 49.734375 62.957031 49.953125 62.921875 C 54.417969 62.261719 63.875 60.222656 65.90625 54.605469 L 72.730469 35.753906 C 73.019531 34.949219 72.421875 34.113281 71.578125 34.113281 " fill-opacity="1" fill-rule="nonzero"/></g><g fill="#ffffff" fill-opacity="1"><g transform="translate(39.144882, 38.702133)"><g><path d="M 0.578125 -0.703125 C 0.578125 -0.972656 0.648438 -1.175781 0.796875 -1.3125 C 0.941406 -1.457031 1.15625 -1.53125 1.4375 -1.53125 C 1.707031 -1.53125 1.914062 -1.457031 2.0625 -1.3125 C 2.207031 -1.164062 2.28125 -0.960938 2.28125 -0.703125 C 2.28125 -0.441406 2.203125 -0.238281 2.046875 -0.09375 C 1.898438 0.0507812 1.695312 0.125 1.4375 0.125 C 1.15625 0.125 0.941406 0.0546875 0.796875 -0.078125 C 0.648438 -0.222656 0.578125 -0.429688 0.578125 -0.703125 Z M 0.578125 -0.703125 "/></g></g></g></svg>